{
	"asset":{
		"generator":"Khronos glTF Blender I/O v5.1.18",
		"version":"2.0"
	},
	"extensionsUsed":[
		"KHR_materials_specular"
	],
	"scene":0,
	"scenes":[
		{
			"name":"Scene",
			"nodes":[
				0
			]
		}
	],
	"nodes":[
		{
			"mesh":0,
			"name":"fbx",
			"rotation":[
				0.7071068286895752,
				0,
				0,
				0.7071068286895752
			],
			"scale":[
				0.009999999776482582,
				0.009999999776482582,
				0.009999999776482582
			]
		}
	],
	"materials":[
		{
			"alphaMode":"BLEND",
			"doubleSided":true,
			"extensions":{
				"KHR_materials_specular":{
					"specularColorFactor":[
						0.1770000159740448,
						0.1770000159740448,
						0.1770000159740448
					]
				}
			},
			"name":"Knit_Cotton_Jersey_FRONT_2664",
			"normalTexture":{
				"index":0
			},
			"pbrMetallicRoughness":{
				"baseColorTexture":{
					"index":1
				},
				"metallicFactor":0,
				"roughnessFactor":0.31825554370880127
			}
		},
		{
			"alphaMode":"BLEND",
			"doubleSided":true,
			"extensions":{
				"KHR_materials_specular":{
					"specularColorFactor":[
						0.15000000596046448,
						0.15000000596046448,
						0.15000000596046448
					]
				}
			},
			"name":"Rib_2X2_468gsm_FRONT_2676",
			"normalTexture":{
				"index":2
			},
			"pbrMetallicRoughness":{
				"baseColorTexture":{
					"index":3
				},
				"metallicFactor":0,
				"roughnessFactor":0.4636862874031067
			}
		},
		{
			"alphaMode":"BLEND",
			"doubleSided":true,
			"extensions":{
				"KHR_materials_specular":{
					"specularColorFactor":[
						0.15000000596046448,
						0.15000000596046448,
						0.15000000596046448
					]
				}
			},
			"name":"Material3017",
			"normalTexture":{
				"index":4
			},
			"pbrMetallicRoughness":{
				"baseColorTexture":{
					"index":5
				},
				"metallicFactor":0,
				"roughnessFactor":0.4636862874031067
			}
		},
		{
			"alphaMode":"BLEND",
			"doubleSided":true,
			"extensions":{
				"KHR_materials_specular":{
					"specularColorFactor":[
						0.15000000596046448,
						0.15000000596046448,
						0.15000000596046448
					]
				}
			},
			"name":"Material2892",
			"normalTexture":{
				"index":6
			},
			"pbrMetallicRoughness":{
				"baseColorTexture":{
					"index":7
				},
				"metallicFactor":0,
				"roughnessFactor":0.4636862874031067
			}
		}
	],
	"meshes":[
		{
			"name":"fbx",
			"primitives":[
				{
					"attributes":{
						"POSITION":0,
						"NORMAL":1,
						"TEXCOORD_0":2
					},
					"indices":3,
					"material":0
				},
				{
					"attributes":{
						"POSITION":4,
						"NORMAL":5,
						"TEXCOORD_0":6
					},
					"indices":7,
					"material":1
				},
				{
					"attributes":{
						"POSITION":8,
						"NORMAL":9,
						"TEXCOORD_0":10
					},
					"indices":11,
					"material":2
				},
				{
					"attributes":{
						"POSITION":12,
						"NORMAL":13,
						"TEXCOORD_0":14
					},
					"indices":15,
					"material":3
				}
			]
		}
	],
	"textures":[
		{
			"sampler":0,
			"source":0
		},
		{
			"sampler":0,
			"source":1
		},
		{
			"sampler":0,
			"source":0
		},
		{
			"sampler":0,
			"source":1
		},
		{
			"sampler":0,
			"source":0
		},
		{
			"sampler":0,
			"source":1
		},
		{
			"sampler":0,
			"source":0
		},
		{
			"sampler":0,
			"source":1
		}
	],
	"images":[
		{
			"mimeType":"image/jpeg",
			"name":"Default_normal.jpg",
			"uri":"Default_normal.jpg"
		},
		{
			"mimeType":"image/png",
			"name":"diffuse_preview.png",
			"uri":"diffuse_preview.png"
		}
	],
	"accessors":[
		{
			"bufferView":0,
			"componentType":5126,
			"count":107182,
			"max":[
				318.29095458984375,
				151.1148223876953,
				-893.4313354492188
			],
			"min":[
				-318.9232177734375,
				-149.05599975585938,
				-1530.52783203125
			],
			"type":"VEC3"
		},
		{
			"bufferView":1,
			"componentType":5126,
			"count":107182,
			"type":"VEC3"
		},
		{
			"bufferView":2,
			"componentType":5126,
			"count":107182,
			"type":"VEC2"
		},
		{
			"bufferView":3,
			"componentType":5125,
			"count":625584,
			"type":"SCALAR"
		},
		{
			"bufferView":4,
			"componentType":5126,
			"count":12398,
			"max":[
				128.10842895507812,
				55.935943603515625,
				-1449.486083984375
			],
			"min":[
				-128.5479278564453,
				-117.35041809082031,
				-1540.897705078125
			],
			"type":"VEC3"
		},
		{
			"bufferView":5,
			"componentType":5126,
			"count":12398,
			"type":"VEC3"
		},
		{
			"bufferView":6,
			"componentType":5126,
			"count":12398,
			"type":"VEC2"
		},
		{
			"bufferView":7,
			"componentType":5123,
			"count":65892,
			"type":"SCALAR"
		},
		{
			"bufferView":8,
			"componentType":5126,
			"count":257368,
			"max":[
				224.17723083496094,
				67.5613021850586,
				-1322.75146484375
			],
			"min":[
				-224.1808319091797,
				-118.11868286132812,
				-1530.7415771484375
			],
			"type":"VEC3"
		},
		{
			"bufferView":9,
			"componentType":5126,
			"count":257368,
			"type":"VEC3"
		},
		{
			"bufferView":10,
			"componentType":5126,
			"count":257368,
			"type":"VEC2"
		},
		{
			"bufferView":11,
			"componentType":5125,
			"count":1325688,
			"type":"SCALAR"
		},
		{
			"bufferView":12,
			"componentType":5126,
			"count":302736,
			"max":[
				314.1481018066406,
				147.4813232421875,
				-913.0057373046875
			],
			"min":[
				-313.0309143066406,
				-107.51102447509766,
				-1309.518798828125
			],
			"type":"VEC3"
		},
		{
			"bufferView":13,
			"componentType":5126,
			"count":302736,
			"type":"VEC3"
		},
		{
			"bufferView":14,
			"componentType":5126,
			"count":302736,
			"type":"VEC2"
		},
		{
			"bufferView":15,
			"componentType":5125,
			"count":1559376,
			"type":"SCALAR"
		}
	],
	"bufferViews":[
		{
			"buffer":0,
			"byteLength":1286184,
			"byteOffset":0,
			"target":34962
		},
		{
			"buffer":0,
			"byteLength":1286184,
			"byteOffset":1286184,
			"target":34962
		},
		{
			"buffer":0,
			"byteLength":857456,
			"byteOffset":2572368,
			"target":34962
		},
		{
			"buffer":0,
			"byteLength":2502336,
			"byteOffset":3429824,
			"target":34963
		},
		{
			"buffer":0,
			"byteLength":148776,
			"byteOffset":5932160,
			"target":34962
		},
		{
			"buffer":0,
			"byteLength":148776,
			"byteOffset":6080936,
			"target":34962
		},
		{
			"buffer":0,
			"byteLength":99184,
			"byteOffset":6229712,
			"target":34962
		},
		{
			"buffer":0,
			"byteLength":131784,
			"byteOffset":6328896,
			"target":34963
		},
		{
			"buffer":0,
			"byteLength":3088416,
			"byteOffset":6460680,
			"target":34962
		},
		{
			"buffer":0,
			"byteLength":3088416,
			"byteOffset":9549096,
			"target":34962
		},
		{
			"buffer":0,
			"byteLength":2058944,
			"byteOffset":12637512,
			"target":34962
		},
		{
			"buffer":0,
			"byteLength":5302752,
			"byteOffset":14696456,
			"target":34963
		},
		{
			"buffer":0,
			"byteLength":3632832,
			"byteOffset":19999208,
			"target":34962
		},
		{
			"buffer":0,
			"byteLength":3632832,
			"byteOffset":23632040,
			"target":34962
		},
		{
			"buffer":0,
			"byteLength":2421888,
			"byteOffset":27264872,
			"target":34962
		},
		{
			"buffer":0,
			"byteLength":6237504,
			"byteOffset":29686760,
			"target":34963
		}
	],
	"samplers":[
		{
			"magFilter":9729,
			"minFilter":9987
		}
	],
	"buffers":[
		{
			"byteLength":35924264,
			"uri":"fbx.bin"
		}
	]
}
